<svg width="125" height="125" viewBox="0 0 125 125" fill="none" xmlns="http://www.w3.org/2000/svg">
<g id="Logo">
<g id="FistWordmark 1" clip-path="url(#clip0_2_2)">
<path id="Vector" d="M52.1133 53.8486V80.9766C52.1133 81.3697 51.9584 81.7467 51.6827 82.0246C51.407 82.3025 51.0331 82.4587 50.6432 82.4587H44.1238C43.7339 82.4587 43.36 82.3025 43.0843 82.0246C42.8086 81.7467 42.6537 81.3697 42.6537 80.9766V61.0653C42.6537 60.6723 42.4989 60.2953 42.2232 60.0174C41.9475 59.7395 41.5736 59.5833 41.1837 59.5833H32.4903C32.1004 59.5833 31.7265 59.7395 31.4508 60.0174C31.1751 60.2953 31.0202 60.6723 31.0202 61.0653V80.9766C31.0202 81.3697 30.8653 81.7467 30.5896 82.0246C30.3139 82.3025 29.94 82.4587 29.5501 82.4587H23.0307C22.6408 82.4587 22.2669 82.3025 21.9912 82.0246C21.7155 81.7467 21.5607 81.3697 21.5607 80.9766V61.0653C21.5607 60.6723 21.4058 60.2953 21.1301 60.0174C20.8544 59.7395 20.4805 59.5833 20.0906 59.5833H17.4701C17.0802 59.5833 16.7063 59.4272 16.4306 59.1493C16.1549 58.8713 16 58.4944 16 58.1013V53.8486C16 53.4556 16.1549 53.0786 16.4306 52.8007C16.7063 52.5228 17.0802 52.3666 17.4701 52.3666H20.0906C20.2838 52.3666 20.4751 52.3282 20.6536 52.2536C20.832 52.179 20.9942 52.0697 21.1307 51.9319C21.2672 51.7941 21.3755 51.6305 21.4493 51.4505C21.523 51.2705 21.5609 51.0776 21.5607 50.8828V50.4962C21.5607 41.0243 26.7378 35.9984 35.3665 35.9984H36.0065C36.3964 35.9984 36.7703 36.1545 37.046 36.4324C37.3217 36.7104 37.4766 37.0873 37.4766 37.4804V43.3439C37.4766 43.737 37.3217 44.114 37.046 44.3919C36.7703 44.6698 36.3964 44.826 36.0065 44.826C32.3624 44.826 31.0158 46.759 31.0158 49.5297V50.8828C31.0158 51.0775 31.0538 51.2702 31.1277 51.45C31.2016 51.6298 31.3099 51.7932 31.4464 51.9308C31.5829 52.0684 31.745 52.1776 31.9233 52.252C32.1017 52.3265 32.2928 52.3648 32.4859 52.3648H50.6432C50.8364 52.3648 51.0277 52.4032 51.2062 52.4778C51.3846 52.5524 51.5468 52.6617 51.6833 52.7995C51.8198 52.9373 51.9281 53.1009 52.0019 53.2809C52.0756 53.4609 52.1135 53.6539 52.1133 53.8486ZM41.5033 42.3148C41.5033 39.1574 44.1877 36.7733 47.3196 36.7733C50.5793 36.7733 53.1359 39.1566 53.1359 42.3148C53.1359 45.3432 50.5793 47.8562 47.3196 47.8562C44.1877 47.8562 41.5033 45.3432 41.5033 42.3148Z" fill="black"/>
<path id="Vector_2" d="M59.9696 72.7288H66.0985C66.4041 72.7252 66.703 72.8186 66.9529 72.9959C67.2028 73.1732 67.391 73.4253 67.4907 73.7166C67.8768 74.8914 68.9984 75.9506 71.0962 75.9506C73.0776 75.9506 74.7394 74.9196 74.7394 73.5021C74.7394 72.5311 74.039 72.0845 71.7993 71.569L67.9004 70.5381C59.1449 68.1548 58.8883 63.128 58.8883 60.6142C58.8883 56.1682 63.8737 51.5933 71.0962 51.5933C76.2874 51.5933 82.5126 53.8432 83.3418 60.1163C83.3673 60.3245 83.3485 60.5358 83.2867 60.7361C83.2248 60.9364 83.1214 61.1211 82.9832 61.2779C82.845 61.4348 82.6753 61.5601 82.4853 61.6457C82.2953 61.7312 82.0894 61.775 81.8813 61.774H75.7332C75.4216 61.7741 75.1181 61.6745 74.8664 61.4895C74.6146 61.3046 74.4276 61.0438 74.3323 60.7448C73.9339 59.4985 72.7747 58.8744 71.2862 58.8744C69.6883 58.8744 68.3461 59.6476 68.3461 60.9363C68.3461 62.0962 69.3687 62.7414 70.9027 63.128L76.0799 64.5456C83.558 66.6075 84.1981 71.3757 84.1981 73.4376C84.1981 80.0744 77.3582 83.2353 71.3501 83.2353C65.2816 83.2353 59.4784 80.1742 58.5145 74.443C58.4803 74.231 58.4925 74.014 58.55 73.8073C58.6076 73.6005 58.7092 73.4088 58.8477 73.2457C58.9862 73.0825 59.1583 72.9517 59.3521 72.8625C59.5459 72.7732 59.7566 72.7276 59.9696 72.7288Z" fill="black"/>
<path id="Vector_3" d="M109 53.8485V58.1012C109 58.4943 108.845 58.8712 108.57 59.1491C108.294 59.4271 107.92 59.5832 107.53 59.5832H104.203C103.813 59.5832 103.439 59.7393 103.163 60.0173C102.888 60.2952 102.733 60.6722 102.733 61.0652V80.9765C102.733 81.3696 102.578 81.7465 102.302 82.0245C102.027 82.3024 101.653 82.4585 101.263 82.4585H94.7468C94.3569 82.4585 93.9829 82.3024 93.707 82.0245C93.4312 81.7466 93.2761 81.3696 93.2759 80.9765V61.0652C93.2759 60.6722 93.121 60.2952 92.8453 60.0173C92.5696 59.7393 92.1957 59.5832 91.8058 59.5832H89.3131C88.9232 59.5832 88.5493 59.4271 88.2736 59.1491C87.9979 58.8712 87.843 58.4943 87.843 58.1012V53.8485C87.843 53.4554 87.9979 53.0785 88.2736 52.8006C88.5493 52.5226 88.9232 52.3665 89.3131 52.3665H91.8058C91.999 52.3665 92.1903 52.3281 92.3688 52.2535C92.5473 52.1789 92.7094 52.0696 92.8459 51.9318C92.9825 51.794 93.0907 51.6304 93.1645 51.4504C93.2383 51.2704 93.2761 51.0775 93.2759 50.8827V43.0878C93.2761 42.6947 93.4312 42.3178 93.707 42.0398C93.9829 41.7619 94.3569 41.6058 94.7468 41.6058H101.266C101.656 41.6058 102.03 41.762 102.306 42.0399C102.581 42.3178 102.736 42.6948 102.736 43.0878V50.8827C102.736 51.2758 102.891 51.6527 103.167 51.9306C103.443 52.2086 103.817 52.3647 104.206 52.3647H107.534C107.923 52.3657 108.296 52.5224 108.571 52.8007C108.846 53.0789 109.001 53.4557 109 53.8485Z" fill="black"/>
</g>
<rect id="Rectangle 2" x="20" y="87" width="86" height="5" rx="2.5" fill="black"/>
</g>
<defs>
<clipPath id="clip0_2_2">
<rect width="93" height="53" fill="white" transform="translate(16 36)"/>
</clipPath>
</defs>
</svg>
